<?xml version="1.0" encoding="UTF-8"?>
<svg id="Layer_1" xmlns="http://www.w3.org/2000/svg" version="1.1" viewBox="0 0 1080 1080">
  <!-- Generator: Adobe Illustrator 29.5.0, SVG Export Plug-In . SVG Version: 2.1.0 Build 137)  -->
  <defs>
    <style>
      .st0 {
        fill: #fff;
      }

      .st1 {
        fill: #e01f26;
      }

      .st2 {
        fill: #2bb164;
      }

      .st3 {
        fill: #ed313a;
      }
    </style>
  </defs>
  <path class="st0" d="M818,508.1c-19.2,40.7-47.7,71.7-78.4,95.2-12,9.1-24.2,17.1-36.4,24.1-62.3,35.7-122,44.9-122,44.9l-174.3,1.3-182.2,1.4h0V44h238.5l203.5,50.8s217.2,273.5,151.5,413.3Z"/>
  <g>
    <polygon class="st0" points="641.3 581 611.3 558.6 500.6 475.8 611.3 558.6 641.3 581"/>
    <path class="st3" d="M581.1,672.2c-13.5,1.8-27.2,2.7-41.1,2.7h-133.2v-133l174.3,130.3Z"/>
    <polygon class="st1" points="406.8 541.9 406.8 674.9 224.6 674.9 224.6 669 406.5 541.7 406.8 541.9"/>
    <polygon class="st2" points="406.8 541.5 406.8 541.9 406.5 541.7 406.8 541.5"/>
    <polygon class="st1" points="406.8 336.3 406.8 405.2 406.5 405.5 406.4 405.5 312.4 471.3 224.6 532.7 224.5 532.7 224.5 462.3 263.7 434.9 357.8 369.1 405.8 335.5 406.8 336.3"/>
    <polygon class="st2" points="406.8 334.7 406.8 336.3 405.8 335.5 406.8 334.7"/>
    <path class="st3" d="M750.9,593.5c-3.7,3.3-7.5,6.6-11.3,9.7-12,9.1-24.2,17.1-36.4,24.1l-38.6-28.9-23.4-17.5-29.9-22.3-110.7-82.8h0l-93.8-70.1v-69.4l47.6,35.6,94.2,70.4,62.7,46.9,115.7,86.6,23.9,17.8Z"/>
    <polygon class="st2" points="406.8 405.2 406.8 405.7 406.5 405.5 406.8 405.2"/>
    <path class="st3" d="M855.5,359.5c0,13.1-.8,26-2.4,38.7-4.9,39.3-17,76.4-35.1,109.9l-91-68v-122.6l9.3-6.6-9.3-6.9-84.8-63.4-30.9-23.1-88,70.4-111.7-83.5-4.9-3.7v-1l-.7.5-93.8,65.6-47.9,33.6-39.9,27.9V44h315.5c24.5,0,48.4,2.8,71.3,8.1l4.6,1.1c40.7,10.2,78.3,28.2,111.1,52.6v4.8l3.3-2.4c15.7,12,30.3,25.4,43.5,40,25,27.6,45.2,59.7,59.2,94.8,14.4,36,22.4,75.3,22.4,116.3Z"/>
    <polygon class="st2" points="406.8 199.6 406.8 200.6 406.1 200.1 406.8 199.6"/>
    <polygon class="st1" points="611.3 217.4 611.3 353.5 548.1 306.2 523.4 287.7 611.3 217.4"/>
    <polygon class="st3" points="736.4 310.8 727 317.4 727 303.9 736.4 310.8"/>
    <path class="st3" d="M730.4,108.3l-3.3,2.3v-4.8c1.1.8,2.2,1.6,3.3,2.5Z"/>
    <path class="st2" d="M406.8,1036h-182.3,182.3Z"/>
    <rect class="st3" x="224.5" y="674.9" width="182.3" height="361.1"/>
  </g>
</svg>